<svg id="Capa_1" data-name="Capa 1" xmlns="http://www.w3.org/2000/svg" viewBox="0 0 736.04 605.5"><defs><style>.cls-1{fill:#000100;}.cls-2{font-size:151.59px;font-family:Fredericka the Great;}.cls-2,.cls-4{fill:#1d1d1b;}.cls-3{fill:none;stroke:#231f20;stroke-linecap:round;stroke-miterlimit:10;stroke-width:5px;}.cls-4{font-size:48.43px;font-family:Barlow;}</style></defs><title>logoBakery</title><path class="cls-1" d="M456.9,104.38l-0.34-.22c0.37,8.82-.33,25.22-8.57,40.45a2.77,2.77,0,0,1-2.44,1.46l-0.38,0a2.78,2.78,0,0,1-2.33-2.14c-0.08-.37-8.31-35.93-30.16-59.7-0.73-.2-1.45-0.42-2.19-0.61a161,161,0,0,0-25.93-4.42c-0.68-.06-1.37-0.09-2.05-0.14,3.9,7.18,14.22,30.34,7.06,63.86a2.78,2.78,0,0,1-2.43,2.19l-0.29,0a2.78,2.78,0,0,1-2.54-1.64c-0.2-.45-20.49-45.09-48.56-60.54a2.72,2.72,0,0,1-.72-0.59,149.25,149.25,0,0,0-33.44,11.42,59.29,59.29,0,0,1,27.11,50.59,2.78,2.78,0,0,1-5,1.66c-0.21-.28-21.46-28.31-56.8-28.31H266.8c-0.46.45-1,.85-1.42,1.31C245.77,138.51,235,163.21,235,188.54a91.44,91.44,0,0,0,8.57,38.62,2.78,2.78,0,0,0,2.53,1.61H493.88a2.79,2.79,0,0,0,2.53-1.61A91.6,91.6,0,0,0,505,188.54C505,156,487.44,125.33,456.9,104.38Z"/><text class="cls-2" transform="translate(141.08 388.09) scale(0.7)">BAKERY</text><path class="cls-1" d="M369.91,244.21l6.39,12.92a1.51,1.51,0,0,0,.92.71l14.2,2.06a1.27,1.27,0,0,1,.71,2.13l-10.3,10a1.31,1.31,0,0,0-.36,1.14l2.41,14.2a1.28,1.28,0,0,1-1.78,1.35l-12.71-6.68a1.09,1.09,0,0,0-1.14,0l-12.71,6.68a1.22,1.22,0,0,1-1.78-1.35l2.41-14.2a1.31,1.31,0,0,0-.36-1.14L345.41,262a1.25,1.25,0,0,1,.71-2.13l14.2-2.06a1.08,1.08,0,0,0,.92-0.71l6.39-12.92A1.3,1.3,0,0,1,369.91,244.21Z"/><path class="cls-1" d="M316.91,244.21l6.39,12.92a1.51,1.51,0,0,0,.92.71l14.2,2.06a1.27,1.27,0,0,1,.71,2.13l-10.3,10a1.31,1.31,0,0,0-.36,1.14l2.41,14.2a1.28,1.28,0,0,1-1.78,1.35l-12.71-6.68a1.09,1.09,0,0,0-1.14,0l-12.71,6.68a1.22,1.22,0,0,1-1.78-1.35l2.41-14.2a1.31,1.31,0,0,0-.36-1.14L292.41,262a1.25,1.25,0,0,1,.71-2.13l14.2-2.06a1.08,1.08,0,0,0,.92-0.71l6.39-12.92A1.3,1.3,0,0,1,316.91,244.21Z"/><path class="cls-1" d="M262.91,244.21l6.39,12.92a1.51,1.51,0,0,0,.92.71l14.2,2.06a1.27,1.27,0,0,1,.71,2.13l-10.3,10a1.31,1.31,0,0,0-.36,1.14l2.41,14.2a1.28,1.28,0,0,1-1.78,1.35l-12.71-6.68a1.09,1.09,0,0,0-1.14,0l-12.71,6.68a1.22,1.22,0,0,1-1.78-1.35l2.41-14.2a1.31,1.31,0,0,0-.36-1.14L238.41,262a1.25,1.25,0,0,1,.71-2.13l14.2-2.06a1.08,1.08,0,0,0,.92-0.71l6.39-12.92A1.3,1.3,0,0,1,262.91,244.21Z"/><path class="cls-1" d="M425.26,244.21l6.39,12.92a1.51,1.51,0,0,0,.92.71l14.2,2.06a1.27,1.27,0,0,1,.71,2.13l-10.3,10a1.31,1.31,0,0,0-.36,1.14l2.41,14.2a1.28,1.28,0,0,1-1.78,1.35l-12.71-6.68a1.09,1.09,0,0,0-1.14,0l-12.71,6.68a1.22,1.22,0,0,1-1.78-1.35l2.41-14.2a1.31,1.31,0,0,0-.36-1.14L400.76,262a1.25,1.25,0,0,1,.71-2.13l14.2-2.06a1.08,1.08,0,0,0,.92-0.71L423,244.14A1.3,1.3,0,0,1,425.26,244.21Z"/><path class="cls-1" d="M480.61,244.21L487,257.14a1.51,1.51,0,0,0,.92.71l14.2,2.06a1.27,1.27,0,0,1,.71,2.13l-10.3,10a1.31,1.31,0,0,0-.36,1.14l2.41,14.2a1.28,1.28,0,0,1-1.78,1.35l-12.71-6.68a1.09,1.09,0,0,0-1.14,0l-12.71,6.68a1.22,1.22,0,0,1-1.78-1.35l2.41-14.2a1.31,1.31,0,0,0-.36-1.14L456.11,262a1.25,1.25,0,0,1,.71-2.13l14.2-2.06a1.08,1.08,0,0,0,.92-0.71l6.39-12.92A1.3,1.3,0,0,1,480.61,244.21Z"/><line class="cls-3" x1="521.75" y1="288.89" x2="656.97" y2="288.89"/><line class="cls-3" x1="81.19" y1="459.9" x2="656.97" y2="459.9"/><line class="cls-3" x1="81.19" y1="288.89" x2="216.41" y2="288.89"/><text class="cls-4" transform="translate(115.28 438.8)">FRESH <tspan x="136.08" y="0">F</tspan><tspan x="159.52" y="0">OOD </tspan><tspan x="246.55" y="0">B</tspan><tspan x="272.51" y="0">AKED GOODS</tspan></text><path class="cls-1" d="M246.82,512.15c-2.85.74-6.85,2.74-8.85-1.26a20.43,20.43,0,0,1,1-20c4-4,9,1,13.35,2,1.35,0,2.87.05,4.48,0.05h21.67v17.35H256.79c-1.61,0-3.13,0-4.48.05a9.77,9.77,0,0,0-3,.61C247.83,511.63,246.82,512.15,246.82,512.15ZM452.7,525.83H287.23a9,9,0,0,1-8.76-8.76v-30.8a8.79,8.79,0,0,1,8.76-8.76H452.71a8.81,8.81,0,0,1,8.77,8.76v30.79A8.79,8.79,0,0,1,452.7,525.83Zm40.1-13.37a16.11,16.11,0,0,0-5.18-2.06c-1.35,0-2.87-.05-4.48-0.05H461.48V493h21.67c1.61,0,3.13,0,4.48-.05,4.34-2,10.34-6,13.34-1,4,6,6,20-4.32,22.09A11.71,11.71,0,0,1,492.81,512.47Z"/></svg>