<svg id="Capa_1" data-name="Capa 1" xmlns="http://www.w3.org/2000/svg" viewBox="0 0 428.55 310.01"><defs><style>.cls-1{fill:#000100;}.cls-2{font-size:76.93px;fill:#fff;font-family:Fredericka the Great;}</style></defs><title>logoBakerymini</title><path class="cls-1" d="M302.4,104.38l-0.34-.22c0.37,8.82-.33,25.22-8.57,40.45a2.77,2.77,0,0,1-2.44,1.46l-0.38,0a2.78,2.78,0,0,1-2.33-2.14c-0.08-.37-8.31-35.93-30.16-59.7-0.73-.2-1.45-0.42-2.19-0.61a161,161,0,0,0-25.93-4.42c-0.68-.06-1.37-0.09-2.05-0.14,3.9,7.18,14.22,30.34,7.06,63.86a2.78,2.78,0,0,1-2.43,2.19l-0.29,0a2.78,2.78,0,0,1-2.54-1.64c-0.2-.45-20.49-45.09-48.56-60.54a2.72,2.72,0,0,1-.72-0.59,149.25,149.25,0,0,0-33.44,11.42,59.29,59.29,0,0,1,27.11,50.59,2.78,2.78,0,0,1-5,1.66c-0.21-.28-21.46-28.31-56.8-28.31h-0.08c-0.46.45-1,.85-1.42,1.31-19.61,19.53-30.41,44.23-30.41,69.56A91.44,91.44,0,0,0,89,227.15a2.78,2.78,0,0,0,2.53,1.61H339.39a2.79,2.79,0,0,0,2.53-1.61,91.6,91.6,0,0,0,8.56-38.62C350.47,156,332.95,125.33,302.4,104.38Z"/><text class="cls-2" transform="translate(101.87 208.54) scale(0.7)">BAKERY</text></svg>